<mxfile host="Electron" modified="2023-11-15T01:11:51.000Z" agent="Mozilla/5.0 (Windows NT 10.0; Win64; x64) AppleWebKit/537.36 (KHTML, like Gecko) draw.io/22.0.2 Chrome/114.0.5735.289 Electron/25.8.4 Safari/537.36" etag="Me4WGCfoucJ277k20DMx" version="22.0.2" type="device">
  <diagram name="Strona-1" id="h2WLkj2qyGADKgaHyaSV">
    <mxGraphModel dx="1418" dy="828" grid="1" gridSize="10" guides="1" tooltips="1" connect="1" arrows="1" fold="1" page="1" pageScale="1" pageWidth="827" pageHeight="1169" math="0" shadow="0">
      <root>
        <mxCell id="0" />
        <mxCell id="1" parent="0" />
        <mxCell id="EYUodT9akqzmMVGfxFc3-3" value="&lt;b&gt;Lista użytkowników:&lt;/b&gt;" style="text;html=1;strokeColor=none;fillColor=none;align=left;verticalAlign=middle;whiteSpace=wrap;rounded=0;" parent="1" vertex="1">
          <mxGeometry x="30" y="265" width="190" height="30" as="geometry" />
        </mxCell>
        <mxCell id="EYUodT9akqzmMVGfxFc3-4" value="" style="endArrow=none;html=1;rounded=0;" parent="1" edge="1">
          <mxGeometry width="50" height="50" relative="1" as="geometry">
            <mxPoint x="10" y="220" as="sourcePoint" />
            <mxPoint x="860" y="220" as="targetPoint" />
          </mxGeometry>
        </mxCell>
        <mxCell id="EYUodT9akqzmMVGfxFc3-5" value="" style="endArrow=none;html=1;rounded=0;" parent="1" edge="1">
          <mxGeometry width="50" height="50" relative="1" as="geometry">
            <mxPoint x="10" y="780" as="sourcePoint" />
            <mxPoint x="10" y="220" as="targetPoint" />
          </mxGeometry>
        </mxCell>
        <mxCell id="EYUodT9akqzmMVGfxFc3-6" value="" style="endArrow=none;html=1;rounded=0;" parent="1" edge="1">
          <mxGeometry width="50" height="50" relative="1" as="geometry">
            <mxPoint x="10" y="250" as="sourcePoint" />
            <mxPoint x="860" y="250" as="targetPoint" />
          </mxGeometry>
        </mxCell>
        <mxCell id="EYUodT9akqzmMVGfxFc3-13" value="" style="endArrow=none;html=1;rounded=0;" parent="1" edge="1">
          <mxGeometry width="50" height="50" relative="1" as="geometry">
            <mxPoint x="860" y="780" as="sourcePoint" />
            <mxPoint x="859.58" y="220" as="targetPoint" />
          </mxGeometry>
        </mxCell>
        <mxCell id="EYUodT9akqzmMVGfxFc3-14" value="" style="html=1;verticalLabelPosition=bottom;align=center;labelBackgroundColor=#ffffff;verticalAlign=top;strokeWidth=2;shadow=0;dashed=0;shape=mxgraph.ios7.icons.home;" parent="1" vertex="1">
          <mxGeometry x="790" y="228.75" width="20" height="12.5" as="geometry" />
        </mxCell>
        <mxCell id="EYUodT9akqzmMVGfxFc3-15" value="" style="html=1;verticalLabelPosition=bottom;align=center;labelBackgroundColor=#ffffff;verticalAlign=top;strokeWidth=2;shadow=0;dashed=0;shape=mxgraph.ios7.icons.back;fontFamily=Helvetica;fontSize=12;" parent="1" vertex="1">
          <mxGeometry x="840" y="230" width="11.76" height="10" as="geometry" />
        </mxCell>
        <mxCell id="EYUodT9akqzmMVGfxFc3-16" value="" style="html=1;verticalLabelPosition=bottom;align=center;labelBackgroundColor=#ffffff;verticalAlign=top;strokeWidth=2;shadow=0;dashed=0;shape=mxgraph.ios7.icons.reload;fontFamily=Helvetica;fontSize=12;" parent="1" vertex="1">
          <mxGeometry x="820" y="230" width="10" height="10" as="geometry" />
        </mxCell>
        <mxCell id="EYUodT9akqzmMVGfxFc3-18" value="[1]" style="text;html=1;strokeColor=none;fillColor=none;align=center;verticalAlign=middle;whiteSpace=wrap;rounded=0;fontSize=12;fontFamily=Helvetica;fontColor=default;" parent="1" vertex="1">
          <mxGeometry x="870" y="228.75" width="20" height="10" as="geometry" />
        </mxCell>
        <mxCell id="EYUodT9akqzmMVGfxFc3-19" value="" style="endArrow=classic;html=1;rounded=0;fontFamily=Helvetica;fontSize=12;fontColor=default;exitX=0;exitY=0.75;exitDx=0;exitDy=0;" parent="1" source="EYUodT9akqzmMVGfxFc3-18" target="EYUodT9akqzmMVGfxFc3-15" edge="1">
          <mxGeometry width="50" height="50" relative="1" as="geometry">
            <mxPoint x="790" y="200" as="sourcePoint" />
            <mxPoint x="840" y="150" as="targetPoint" />
          </mxGeometry>
        </mxCell>
        <mxCell id="EYUodT9akqzmMVGfxFc3-21" value="" style="shape=flexArrow;endArrow=classic;html=1;rounded=0;fontFamily=Helvetica;fontSize=12;fontColor=default;startWidth=9.30232558139535;endWidth=9.30232558139535;startSize=5.425581395348837;endSize=2.8674418604651164;width=4.651162790697675;" parent="1" edge="1">
          <mxGeometry width="50" height="50" relative="1" as="geometry">
            <mxPoint x="780" y="234.88" as="sourcePoint" />
            <mxPoint x="760" y="234.88" as="targetPoint" />
          </mxGeometry>
        </mxCell>
        <mxCell id="EYUodT9akqzmMVGfxFc3-22" value="[2]" style="text;html=1;strokeColor=none;fillColor=none;align=center;verticalAlign=middle;whiteSpace=wrap;rounded=0;fontSize=12;fontFamily=Helvetica;fontColor=default;" parent="1" vertex="1">
          <mxGeometry x="830" y="200" width="40" height="10" as="geometry" />
        </mxCell>
        <mxCell id="EYUodT9akqzmMVGfxFc3-23" value="" style="endArrow=classic;html=1;rounded=0;fontFamily=Helvetica;fontSize=12;fontColor=default;exitX=0.25;exitY=1;exitDx=0;exitDy=0;entryX=1;entryY=0;entryDx=0;entryDy=0;entryPerimeter=0;" parent="1" source="EYUodT9akqzmMVGfxFc3-22" target="EYUodT9akqzmMVGfxFc3-16" edge="1">
          <mxGeometry width="50" height="50" relative="1" as="geometry">
            <mxPoint x="780" y="230" as="sourcePoint" />
            <mxPoint x="830" y="180" as="targetPoint" />
          </mxGeometry>
        </mxCell>
        <mxCell id="EYUodT9akqzmMVGfxFc3-24" value="[3]" style="text;html=1;strokeColor=none;fillColor=none;align=center;verticalAlign=middle;whiteSpace=wrap;rounded=0;fontSize=12;fontFamily=Helvetica;fontColor=default;" parent="1" vertex="1">
          <mxGeometry x="790" y="200" width="20" height="10" as="geometry" />
        </mxCell>
        <mxCell id="EYUodT9akqzmMVGfxFc3-25" value="" style="endArrow=classic;html=1;rounded=0;fontFamily=Helvetica;fontSize=12;fontColor=default;entryX=0.437;entryY=-0.082;entryDx=0;entryDy=0;entryPerimeter=0;exitX=0.5;exitY=1;exitDx=0;exitDy=0;" parent="1" source="EYUodT9akqzmMVGfxFc3-24" target="EYUodT9akqzmMVGfxFc3-14" edge="1">
          <mxGeometry width="50" height="50" relative="1" as="geometry">
            <mxPoint x="810" y="160" as="sourcePoint" />
            <mxPoint x="800" y="170" as="targetPoint" />
          </mxGeometry>
        </mxCell>
        <mxCell id="EYUodT9akqzmMVGfxFc3-27" value="[4]" style="text;html=1;strokeColor=none;fillColor=none;align=center;verticalAlign=middle;whiteSpace=wrap;rounded=0;fontSize=12;fontFamily=Helvetica;fontColor=default;" parent="1" vertex="1">
          <mxGeometry x="740" y="200" width="20" height="10" as="geometry" />
        </mxCell>
        <mxCell id="EYUodT9akqzmMVGfxFc3-28" value="" style="endArrow=classic;html=1;rounded=0;fontFamily=Helvetica;fontSize=12;fontColor=default;exitX=0.748;exitY=1.065;exitDx=0;exitDy=0;exitPerimeter=0;" parent="1" source="EYUodT9akqzmMVGfxFc3-27" edge="1">
          <mxGeometry width="50" height="50" relative="1" as="geometry">
            <mxPoint x="720" y="230" as="sourcePoint" />
            <mxPoint x="760" y="230" as="targetPoint" />
          </mxGeometry>
        </mxCell>
        <mxCell id="EYUodT9akqzmMVGfxFc3-34" value="" style="endArrow=none;html=1;rounded=0;fontFamily=Helvetica;fontSize=12;fontColor=default;" parent="1" edge="1">
          <mxGeometry width="50" height="50" relative="1" as="geometry">
            <mxPoint x="10" y="780" as="sourcePoint" />
            <mxPoint x="860" y="780" as="targetPoint" />
          </mxGeometry>
        </mxCell>
        <mxCell id="99icuVEXUHL0vRiBvz0g-1" value="&lt;b&gt;Legenda:&lt;/b&gt;&lt;br&gt;[1] Przycisk wylogowania&lt;span style=&quot;white-space: pre;&quot;&gt;&#x9;&lt;/span&gt;&lt;span style=&quot;white-space: pre;&quot;&gt;&#x9;&lt;span style=&quot;white-space: pre;&quot;&gt;&#x9;&lt;/span&gt;&lt;span style=&quot;white-space: pre;&quot;&gt;&#x9;&lt;span style=&quot;white-space: pre;&quot;&gt;&#x9;&lt;/span&gt;&lt;span style=&quot;white-space: pre;&quot;&gt;&#x9;&lt;span style=&quot;white-space: pre;&quot;&gt;&#x9;&lt;/span&gt;&lt;/span&gt;&lt;/span&gt;&lt;/span&gt;[2] Przycisk odświeżenia interfejsu&lt;br&gt;[3] Przycisk otwarcia ekranu domowego&lt;span style=&quot;white-space: pre;&quot;&gt;&#x9;&lt;/span&gt;&lt;span style=&quot;white-space: pre;&quot;&gt;&#x9;&lt;span style=&quot;white-space: pre;&quot;&gt;&#x9;&lt;/span&gt;&lt;span style=&quot;white-space: pre;&quot;&gt;&#x9;&lt;/span&gt;&lt;span style=&quot;white-space: pre;&quot;&gt;&#x9;&lt;/span&gt;&lt;/span&gt;[4] Przycisk otwarcia uprzednio otwartego ekranu" style="text;html=1;align=left;verticalAlign=middle;resizable=0;points=[];autosize=1;strokeColor=none;fillColor=none;dashed=1;" parent="1" vertex="1">
          <mxGeometry x="140" y="790" width="610" height="60" as="geometry" />
        </mxCell>
        <mxCell id="DOHr0hYEis4pRiLcCh-8-1" value="login" style="rounded=0;whiteSpace=wrap;html=1;dashed=1;" parent="1" vertex="1">
          <mxGeometry x="20" y="223.75" width="100" height="20" as="geometry" />
        </mxCell>
        <mxCell id="DOHr0hYEis4pRiLcCh-8-2" value="rola" style="rounded=0;whiteSpace=wrap;html=1;dashed=1;" parent="1" vertex="1">
          <mxGeometry x="130" y="223.75" width="100" height="20" as="geometry" />
        </mxCell>
        <mxCell id="DOHr0hYEis4pRiLcCh-8-3" value="" style="rounded=0;whiteSpace=wrap;html=1;" parent="1" vertex="1">
          <mxGeometry x="30" y="290" width="350" height="470" as="geometry" />
        </mxCell>
        <mxCell id="DOHr0hYEis4pRiLcCh-8-4" value="" style="rounded=0;whiteSpace=wrap;html=1;" parent="1" vertex="1">
          <mxGeometry x="380" y="290" width="20" height="450" as="geometry" />
        </mxCell>
        <mxCell id="DOHr0hYEis4pRiLcCh-8-5" value="" style="whiteSpace=wrap;html=1;aspect=fixed;" parent="1" vertex="1">
          <mxGeometry x="380" y="290" width="20" height="20" as="geometry" />
        </mxCell>
        <mxCell id="DOHr0hYEis4pRiLcCh-8-6" value="" style="whiteSpace=wrap;html=1;aspect=fixed;" parent="1" vertex="1">
          <mxGeometry x="380" y="740" width="20" height="20" as="geometry" />
        </mxCell>
        <mxCell id="DOHr0hYEis4pRiLcCh-8-7" value="" style="triangle;whiteSpace=wrap;html=1;rotation=-90;" parent="1" vertex="1">
          <mxGeometry x="385" y="295" width="10" height="10" as="geometry" />
        </mxCell>
        <mxCell id="DOHr0hYEis4pRiLcCh-8-8" value="" style="triangle;whiteSpace=wrap;html=1;rotation=90;" parent="1" vertex="1">
          <mxGeometry x="385" y="745" width="10" height="10" as="geometry" />
        </mxCell>
        <mxCell id="DOHr0hYEis4pRiLcCh-8-10" value="=" style="rounded=0;whiteSpace=wrap;html=1;" parent="1" vertex="1">
          <mxGeometry x="380" y="310" width="20" height="430" as="geometry" />
        </mxCell>
        <mxCell id="DOHr0hYEis4pRiLcCh-8-78" value="&lt;b&gt;Sortowanie:&lt;/b&gt;" style="rounded=0;whiteSpace=wrap;html=1;dashed=1;align=left;strokeColor=none;fillColor=none;" parent="1" vertex="1">
          <mxGeometry x="420" y="270" width="420" height="20" as="geometry" />
        </mxCell>
        <mxCell id="DOHr0hYEis4pRiLcCh-8-79" value="Filtrowanie:" style="rounded=0;whiteSpace=wrap;html=1;dashed=1;align=left;fontStyle=1;fillColor=none;strokeColor=none;" parent="1" vertex="1">
          <mxGeometry x="420" y="420" width="420" height="20" as="geometry" />
        </mxCell>
        <mxCell id="DOHr0hYEis4pRiLcCh-8-80" value="Login" style="text;html=1;strokeColor=none;fillColor=none;align=left;verticalAlign=middle;whiteSpace=wrap;rounded=0;" parent="1" vertex="1">
          <mxGeometry x="420" y="290" width="120" height="20" as="geometry" />
        </mxCell>
        <mxCell id="DOHr0hYEis4pRiLcCh-8-81" value="Rola" style="text;html=1;strokeColor=none;fillColor=none;align=left;verticalAlign=middle;whiteSpace=wrap;rounded=0;" parent="1" vertex="1">
          <mxGeometry x="420" y="330" width="90" height="20" as="geometry" />
        </mxCell>
        <mxCell id="DOHr0hYEis4pRiLcCh-8-109" value="Login:" style="text;html=1;strokeColor=none;fillColor=none;align=left;verticalAlign=middle;whiteSpace=wrap;rounded=0;" parent="1" vertex="1">
          <mxGeometry x="420" y="440" width="120" height="20" as="geometry" />
        </mxCell>
        <mxCell id="DOHr0hYEis4pRiLcCh-8-110" value="&lt;font style=&quot;font-size: 11px;&quot;&gt;pole do wprowadzenia loginu (lub jego części)&lt;/font&gt;" style="rounded=0;whiteSpace=wrap;html=1;align=left;" parent="1" vertex="1">
          <mxGeometry x="420" y="460" width="360" height="20" as="geometry" />
        </mxCell>
        <mxCell id="DOHr0hYEis4pRiLcCh-8-111" value="Filtruj" style="rounded=1;whiteSpace=wrap;html=1;" parent="1" vertex="1">
          <mxGeometry x="530" y="530" width="100" height="20" as="geometry" />
        </mxCell>
        <mxCell id="DOHr0hYEis4pRiLcCh-8-123" value="Resetuj filtry" style="rounded=1;whiteSpace=wrap;html=1;" parent="1" vertex="1">
          <mxGeometry x="650" y="530" width="100" height="20" as="geometry" />
        </mxCell>
        <mxCell id="DOHr0hYEis4pRiLcCh-8-125" value="Rola:" style="text;html=1;strokeColor=none;fillColor=none;align=left;verticalAlign=middle;whiteSpace=wrap;rounded=0;" parent="1" vertex="1">
          <mxGeometry x="420" y="480" width="100" height="20" as="geometry" />
        </mxCell>
        <mxCell id="DOHr0hYEis4pRiLcCh-8-126" value="lista wielokrotnego wyboru z dostępnych ról" style="rounded=0;whiteSpace=wrap;html=1;align=left;" parent="1" vertex="1">
          <mxGeometry x="420" y="500" width="340" height="20" as="geometry" />
        </mxCell>
        <mxCell id="DOHr0hYEis4pRiLcCh-8-166" value="" style="rounded=0;whiteSpace=wrap;html=1;" parent="1" vertex="1">
          <mxGeometry x="760" y="500" width="20" height="20" as="geometry" />
        </mxCell>
        <mxCell id="DOHr0hYEis4pRiLcCh-8-167" value="" style="triangle;whiteSpace=wrap;html=1;rotation=90;" parent="1" vertex="1">
          <mxGeometry x="765" y="505" width="10" height="10" as="geometry" />
        </mxCell>
        <mxCell id="DOHr0hYEis4pRiLcCh-8-180" value="lista jednokrotnego wyboru z dostępnych typów sortowań" style="rounded=0;whiteSpace=wrap;html=1;align=left;" parent="1" vertex="1">
          <mxGeometry x="420" y="310" width="340" height="20" as="geometry" />
        </mxCell>
        <mxCell id="DOHr0hYEis4pRiLcCh-8-181" value="" style="rounded=0;whiteSpace=wrap;html=1;" parent="1" vertex="1">
          <mxGeometry x="760" y="310" width="20" height="20" as="geometry" />
        </mxCell>
        <mxCell id="DOHr0hYEis4pRiLcCh-8-182" value="" style="triangle;whiteSpace=wrap;html=1;rotation=90;" parent="1" vertex="1">
          <mxGeometry x="765" y="315" width="10" height="10" as="geometry" />
        </mxCell>
        <mxCell id="DOHr0hYEis4pRiLcCh-8-183" value="lista jednokrotnego wyboru z dostępnych typów sortowań" style="rounded=0;whiteSpace=wrap;html=1;align=left;" parent="1" vertex="1">
          <mxGeometry x="420" y="350" width="340" height="20" as="geometry" />
        </mxCell>
        <mxCell id="DOHr0hYEis4pRiLcCh-8-184" value="" style="rounded=0;whiteSpace=wrap;html=1;" parent="1" vertex="1">
          <mxGeometry x="760" y="350" width="20" height="20" as="geometry" />
        </mxCell>
        <mxCell id="DOHr0hYEis4pRiLcCh-8-185" value="" style="triangle;whiteSpace=wrap;html=1;rotation=90;" parent="1" vertex="1">
          <mxGeometry x="765" y="355" width="10" height="10" as="geometry" />
        </mxCell>
        <mxCell id="DOHr0hYEis4pRiLcCh-8-189" value="Sortuj" style="rounded=1;whiteSpace=wrap;html=1;" parent="1" vertex="1">
          <mxGeometry x="520" y="380" width="110" height="20" as="geometry" />
        </mxCell>
        <mxCell id="DOHr0hYEis4pRiLcCh-8-190" value="Resetuj sortowanie" style="rounded=1;whiteSpace=wrap;html=1;" parent="1" vertex="1">
          <mxGeometry x="650" y="380" width="110" height="20" as="geometry" />
        </mxCell>
        <mxCell id="DOHr0hYEis4pRiLcCh-8-223" value="Reset" style="rounded=1;whiteSpace=wrap;html=1;" parent="1" vertex="1">
          <mxGeometry x="790" y="460" width="50" height="20" as="geometry" />
        </mxCell>
        <mxCell id="DOHr0hYEis4pRiLcCh-8-227" value="Reset" style="rounded=1;whiteSpace=wrap;html=1;" parent="1" vertex="1">
          <mxGeometry x="790" y="500" width="50" height="20" as="geometry" />
        </mxCell>
        <mxCell id="DOHr0hYEis4pRiLcCh-8-232" value="Reset" style="rounded=1;whiteSpace=wrap;html=1;" parent="1" vertex="1">
          <mxGeometry x="790" y="310" width="50" height="20" as="geometry" />
        </mxCell>
        <mxCell id="DOHr0hYEis4pRiLcCh-8-233" value="Reset" style="rounded=1;whiteSpace=wrap;html=1;" parent="1" vertex="1">
          <mxGeometry x="790" y="350" width="50" height="20" as="geometry" />
        </mxCell>
        <mxCell id="LAWEO0FFbo_tGgebEz2V-5" value="" style="group" parent="1" vertex="1" connectable="0">
          <mxGeometry x="30" y="290" width="350" height="90" as="geometry" />
        </mxCell>
        <mxCell id="LAWEO0FFbo_tGgebEz2V-27" value="" style="group" parent="LAWEO0FFbo_tGgebEz2V-5" vertex="1" connectable="0">
          <mxGeometry width="350" height="90" as="geometry" />
        </mxCell>
        <mxCell id="LAWEO0FFbo_tGgebEz2V-2" value="" style="rounded=0;whiteSpace=wrap;html=1;" parent="LAWEO0FFbo_tGgebEz2V-27" vertex="1">
          <mxGeometry width="350" height="90" as="geometry" />
        </mxCell>
        <mxCell id="LAWEO0FFbo_tGgebEz2V-3" value="&amp;lt;Login&amp;gt;" style="text;html=1;strokeColor=default;fillColor=none;align=left;verticalAlign=middle;whiteSpace=wrap;rounded=0;dashed=1;" parent="LAWEO0FFbo_tGgebEz2V-27" vertex="1">
          <mxGeometry x="10" y="5" width="170" height="30" as="geometry" />
        </mxCell>
        <mxCell id="LAWEO0FFbo_tGgebEz2V-4" value="&amp;lt;rola&amp;gt;" style="text;html=1;strokeColor=default;fillColor=none;align=right;verticalAlign=middle;whiteSpace=wrap;rounded=0;dashed=1;" parent="LAWEO0FFbo_tGgebEz2V-27" vertex="1">
          <mxGeometry x="190" y="5" width="150" height="30" as="geometry" />
        </mxCell>
        <mxCell id="LAWEO0FFbo_tGgebEz2V-26" value="Szczegóły..." style="rounded=1;whiteSpace=wrap;html=1;" parent="LAWEO0FFbo_tGgebEz2V-27" vertex="1">
          <mxGeometry x="130" y="50" width="100" height="25" as="geometry" />
        </mxCell>
        <mxCell id="LAWEO0FFbo_tGgebEz2V-41" value="" style="group" parent="1" vertex="1" connectable="0">
          <mxGeometry x="30" y="380" width="350" height="90" as="geometry" />
        </mxCell>
        <mxCell id="LAWEO0FFbo_tGgebEz2V-42" value="" style="rounded=0;whiteSpace=wrap;html=1;" parent="LAWEO0FFbo_tGgebEz2V-41" vertex="1">
          <mxGeometry width="350" height="90" as="geometry" />
        </mxCell>
        <mxCell id="LAWEO0FFbo_tGgebEz2V-43" value="&amp;lt;Login&amp;gt;" style="text;html=1;strokeColor=default;fillColor=none;align=left;verticalAlign=middle;whiteSpace=wrap;rounded=0;dashed=1;" parent="LAWEO0FFbo_tGgebEz2V-41" vertex="1">
          <mxGeometry x="10" y="5" width="170" height="30" as="geometry" />
        </mxCell>
        <mxCell id="LAWEO0FFbo_tGgebEz2V-44" value="&amp;lt;rola&amp;gt;" style="text;html=1;strokeColor=default;fillColor=none;align=right;verticalAlign=middle;whiteSpace=wrap;rounded=0;dashed=1;" parent="LAWEO0FFbo_tGgebEz2V-41" vertex="1">
          <mxGeometry x="190" y="5" width="150" height="30" as="geometry" />
        </mxCell>
        <mxCell id="LAWEO0FFbo_tGgebEz2V-45" value="Szczegóły..." style="rounded=1;whiteSpace=wrap;html=1;" parent="LAWEO0FFbo_tGgebEz2V-41" vertex="1">
          <mxGeometry x="130" y="50" width="100" height="25" as="geometry" />
        </mxCell>
        <mxCell id="LAWEO0FFbo_tGgebEz2V-53" value="" style="group" parent="1" vertex="1" connectable="0">
          <mxGeometry x="30" y="470" width="350" height="90" as="geometry" />
        </mxCell>
        <mxCell id="LAWEO0FFbo_tGgebEz2V-54" value="" style="rounded=0;whiteSpace=wrap;html=1;" parent="LAWEO0FFbo_tGgebEz2V-53" vertex="1">
          <mxGeometry width="350" height="90" as="geometry" />
        </mxCell>
        <mxCell id="LAWEO0FFbo_tGgebEz2V-55" value="&amp;lt;Login&amp;gt;" style="text;html=1;strokeColor=default;fillColor=none;align=left;verticalAlign=middle;whiteSpace=wrap;rounded=0;dashed=1;" parent="LAWEO0FFbo_tGgebEz2V-53" vertex="1">
          <mxGeometry x="10" y="5" width="170" height="30" as="geometry" />
        </mxCell>
        <mxCell id="LAWEO0FFbo_tGgebEz2V-56" value="&amp;lt;rola&amp;gt;" style="text;html=1;strokeColor=default;fillColor=none;align=right;verticalAlign=middle;whiteSpace=wrap;rounded=0;dashed=1;" parent="LAWEO0FFbo_tGgebEz2V-53" vertex="1">
          <mxGeometry x="190" y="5" width="150" height="30" as="geometry" />
        </mxCell>
        <mxCell id="LAWEO0FFbo_tGgebEz2V-57" value="Szczegóły..." style="rounded=1;whiteSpace=wrap;html=1;" parent="LAWEO0FFbo_tGgebEz2V-53" vertex="1">
          <mxGeometry x="130" y="50" width="100" height="25" as="geometry" />
        </mxCell>
      </root>
    </mxGraphModel>
  </diagram>
</mxfile>
